<svg width="21" height="24" viewBox="0 0 21 24" fill="none" xmlns="http://www.w3.org/2000/svg">
<path fill-rule="evenodd" clip-rule="evenodd" d="M10.8111 23.5009C10.5182 23.7938 10.0434 23.7938 9.75047 23.5009L0.747304 14.4978C0.334567 14.085 0.334567 13.4158 0.747304 13.0031C1.16004 12.5904 1.82922 12.5904 2.24196 13.0031L8.79714 19.5583C8.95463 19.7158 9.22391 19.6042 9.22391 19.3815L9.22391 1.08813C9.22391 0.504434 9.69709 0.0312509 10.2808 0.0312509C10.8645 0.0312508 11.3377 0.504433 11.3377 1.08813L11.3377 19.3815C11.3377 19.6042 11.607 19.7158 11.7645 19.5583L18.2734 13.0493C18.6861 12.6366 19.3553 12.6366 19.7681 13.0493C20.1808 13.4621 20.1808 14.1313 19.7681 14.544L10.8111 23.5009Z" fill="white"/>
</svg>
