<svg width="17" height="15" viewBox="0 0 17 15" fill="none" xmlns="http://www.w3.org/2000/svg">
<path fill-rule="evenodd" clip-rule="evenodd" d="M16.5009 7.17413C16.7938 7.46702 16.7938 7.9419 16.5009 8.23479L10.266 14.4698C9.97307 14.7626 9.49819 14.7626 9.2053 14.4698C8.91241 14.1769 8.91241 13.702 9.2053 13.4091L13.7332 8.88124C13.8906 8.72375 13.7791 8.45446 13.5564 8.45446L0.750027 8.45446C0.335814 8.45446 2.67029e-05 8.11868 2.67029e-05 7.70446C2.67029e-05 7.29025 0.335812 6.95446 0.750027 6.95446L13.5564 6.95446C13.7791 6.95446 13.8906 6.68518 13.7332 6.52769L9.23811 2.03264C8.94521 1.73975 8.94521 1.26487 9.23811 0.97198C9.531 0.679087 10.0059 0.679087 10.2988 0.97198L16.5009 7.17413Z" fill="#000050"/>
</svg>
