<svg width="21" height="22" viewBox="0 0 21 22" fill="none" xmlns="http://www.w3.org/2000/svg">
<path d="M3.96875 10C3.96875 9.72386 4.19261 9.5 4.46875 9.5H7.46875C7.74489 9.5 7.96875 9.72386 7.96875 10V13C7.96875 13.2761 7.74489 13.5 7.46875 13.5H4.46875C4.19261 13.5 3.96875 13.2761 3.96875 13V10Z" fill="white"/>
<path d="M4.46875 14.5C4.19261 14.5 3.96875 14.7239 3.96875 15V18C3.96875 18.2761 4.19261 18.5 4.46875 18.5H7.46875C7.74489 18.5 7.96875 18.2761 7.96875 18V15C7.96875 14.7239 7.74489 14.5 7.46875 14.5H4.46875Z" fill="white"/>
<path d="M9.46875 9.5C9.19261 9.5 8.96875 9.72386 8.96875 10V13C8.96875 13.2761 9.19261 13.5 9.46875 13.5H12.4688C12.7449 13.5 12.9688 13.2761 12.9688 13V10C12.9688 9.72386 12.7449 9.5 12.4688 9.5H9.46875Z" fill="white"/>
<path d="M9.46875 14.5C9.19261 14.5 8.96875 14.7239 8.96875 15V18C8.96875 18.2761 9.19261 18.5 9.46875 18.5H12.4688C12.7449 18.5 12.9688 18.2761 12.9688 18V15C12.9688 14.7239 12.7449 14.5 12.4688 14.5H9.46875Z" fill="white"/>
<path d="M14.4688 9.5C14.1926 9.5 13.9688 9.72386 13.9688 10V13C13.9688 13.2761 14.1926 13.5 14.4688 13.5H17.4688C17.7449 13.5 17.9688 13.2761 17.9688 13V10C17.9688 9.72386 17.7449 9.5 17.4688 9.5H14.4688Z" fill="white"/>
<path d="M14.4688 14.5C14.1926 14.5 13.9688 14.7239 13.9688 15V18C13.9688 18.2761 14.1926 18.5 14.4688 18.5H17.4688C17.7449 18.5 17.9688 18.2761 17.9688 18V15C17.9688 14.7239 17.7449 14.5 17.4688 14.5H14.4688Z" fill="white"/>
<path fill-rule="evenodd" clip-rule="evenodd" d="M4.96875 1.5C4.96875 0.947715 5.41647 0.5 5.96875 0.5C6.52103 0.5 6.96875 0.947715 6.96875 1.5V2.5H14.9688V1.5C14.9688 0.947715 15.4165 0.5 15.9688 0.5C16.521 0.5 16.9688 0.947715 16.9688 1.5V2.5H19.4688C20.2972 2.5 20.9688 3.17157 20.9688 4V20C20.9688 20.8284 20.2972 21.5 19.4688 21.5H2.46875C1.64032 21.5 0.96875 20.8284 0.96875 20V4C0.96875 3.17157 1.64032 2.5 2.46875 2.5H4.96875V1.5ZM4.96875 4H2.96875C2.69261 4 2.46875 4.22386 2.46875 4.5V6C2.46875 6.27614 2.69261 6.5 2.96875 6.5H18.9688C19.2449 6.5 19.4688 6.27614 19.4688 6V4.5C19.4688 4.22386 19.2449 4 18.9688 4H16.9688V4.5C16.9688 5.05228 16.521 5.5 15.9688 5.5C15.4165 5.5 14.9688 5.05228 14.9688 4.5V4H6.96875V4.5C6.96875 5.05228 6.52103 5.5 5.96875 5.5C5.41647 5.5 4.96875 5.05228 4.96875 4.5V4ZM2.46875 8.5C2.46875 8.22386 2.69261 8 2.96875 8H18.9688C19.2449 8 19.4688 8.22386 19.4688 8.5V19.5C19.4688 19.7761 19.2449 20 18.9688 20H2.96875C2.69261 20 2.46875 19.7761 2.46875 19.5L2.46875 8.5Z" fill="white"/>
</svg>
