<svg width="596" height="600" viewBox="0 0 596 600" fill="none" xmlns="http://www.w3.org/2000/svg">
<path d="M595.999 579.992C596.122 591.006 587.227 600 576.212 600H341.132C330.283 600 321.489 591.206 321.489 580.357L321.488 542.481C321.488 519.993 335.881 500.03 357.217 492.925C357.217 492.925 356.984 480.412 357.217 475.08C357.672 464.729 360.058 460.163 366.398 452.018C372.372 444.339 374.922 435.741 374.886 426.109C374.789 399.598 374.81 373.087 374.865 346.578C374.936 312.004 397.854 289.256 432.536 289.25C450.761 289.247 468.986 289.215 487.212 289.258C518.909 289.332 542.5 312.336 542.837 343.94C543.123 370.834 543.036 397.736 542.845 424.632C542.77 435.088 545.416 444.274 551.829 452.717C561.512 465.468 559.469 492.925 559.469 492.925C580.831 500.046 595.329 519.927 595.58 542.442L595.999 579.992ZM418.291 376.458C418.291 379.051 418.322 380.771 418.286 382.489C418.13 389.924 415.485 392.542 408.072 392.593C405.358 392.612 402.474 391.989 399.973 392.713C397.078 393.549 393.583 394.95 392.119 397.235C390.995 398.987 391.67 403.587 393.25 404.946C395.298 406.707 399.181 407.415 402.023 406.971C409.029 405.877 412.102 407.429 413.834 414.434C415.502 421.182 416.671 428.092 418.865 434.664C424.626 451.923 441.073 463.416 459.198 463.393C477.567 463.368 494.026 451.588 499.665 434.055C501.552 428.189 502.785 422.102 504.11 416.071C505.974 407.594 508.207 406.04 517.006 407.548C521.853 408.38 525.835 405.758 526.457 401.325C527.135 396.501 524.017 392.877 518.732 392.609C515.445 392.441 512.139 392.671 508.845 392.576C503.118 392.411 500.288 389.758 499.912 384.101C499.72 381.21 500.028 378.285 499.803 375.398C499.388 370.077 491.816 365.508 486.966 367.516C472.66 373.444 457.783 376.523 442.271 376.464C434.548 376.435 426.823 376.458 418.291 376.458ZM430.279 494.843C444.165 510.759 473.271 510.778 487.579 494.801C485.635 488.103 483.799 481.781 481.845 475.052C466.469 481.37 450.865 480.763 435.892 475.006C433.917 481.986 432.159 488.201 430.279 494.843Z" fill="#0000E0"/>
<path d="M0.301758 576.206C0.301758 530.211 37.5876 492.925 83.582 492.925C83.582 492.925 95.5841 484.849 97.3129 475.848C98.694 468.658 97.659 463.288 92.2522 457.714C83.5105 448.702 80.5153 436.619 78.0323 424.741C59.4408 420.706 53.6321 413.448 53.6275 394.501C53.6244 378.239 53.5623 361.977 53.6414 345.715C53.8059 312.278 77.0034 289.271 110.496 289.251C129.117 289.24 147.74 289.212 166.361 289.257C197.986 289.335 221.659 312.261 222.309 343.85C222.68 361.847 222.529 379.859 222.343 397.861C222.193 412.489 213.948 421.412 198.112 424.524C196.982 428.694 196.5 433.305 194.53 437.158C190.263 445.507 185.655 453.76 180.311 461.445C178.149 464.552 176.915 467.044 177.325 470.744C179.029 486.146 194.8 492.925 194.8 492.925C238.506 492.925 273.937 528.356 273.937 572.062V582.154C273.937 592.01 265.947 600 256.091 600H18.1475C8.29158 600 0.301758 592.01 0.301758 582.154V576.206ZM97.063 376.461C97.063 379.158 97.0956 380.89 97.0568 382.62C96.8939 389.982 94.2091 392.571 86.7259 392.597C84.0117 392.606 81.1206 391.995 78.6282 392.734C75.748 393.587 72.4269 395.058 70.8068 397.332C69.7003 398.885 70.2667 403.339 71.7255 404.589C73.836 406.397 77.5947 407.529 80.3617 407.098C88.2002 405.877 90.9129 407.27 92.8047 415.093C94.4388 421.847 95.6508 428.753 97.9057 435.297C103.725 452.196 120.174 463.459 138.084 463.392C156.227 463.324 172.745 451.662 178.309 434.504C180.385 428.098 181.568 421.397 183.081 414.814C184.648 407.99 187.929 406.187 194.8 407.051C197.636 407.408 201.497 406.491 203.465 404.641C204.978 403.218 205.443 398.595 204.242 396.901C202.667 394.678 198.966 392.697 196.231 392.763C182.149 393.105 177.528 393.016 178.504 375.848C178.828 370.149 170.847 365.414 165.625 367.568C151.123 373.549 136.046 376.597 120.332 376.47C112.815 376.41 105.297 376.461 97.063 376.461ZM160.746 475.433C148.328 478.679 132.933 478.677 114.562 475.429C112.753 481.778 110.943 488.125 109.026 494.847C123.318 510.804 152.443 510.746 166.309 494.826C164.405 488.187 162.625 481.982 160.746 475.433Z" fill="#0000E0"/>
<path fill-rule="evenodd" clip-rule="evenodd" d="M125.222 0C115.366 0 107.376 7.98982 107.376 17.8458V196.303C107.376 206.159 115.366 214.149 125.222 214.149H146.042C150.97 214.149 154.965 218.144 154.965 223.072V251.242C154.965 258.151 162.479 262.438 168.428 258.923L235.793 219.113C241.293 215.864 247.564 214.149 253.952 214.149H323.074C329.834 214.149 336.455 216.069 342.167 219.686L403.007 258.207C408.948 261.969 416.703 257.7 416.703 250.668V223.072C416.703 218.144 420.698 214.149 425.626 214.149H446.446C456.302 214.149 464.292 206.159 464.292 196.303V17.8458C464.292 7.98982 456.302 0 446.446 0H125.222ZM163.888 46.7812C158.96 46.7812 154.965 50.7761 154.965 55.7041C154.965 60.6321 158.96 64.627 163.888 64.627H407.78C412.708 64.627 416.703 60.6321 416.703 55.7041C416.703 50.7761 412.708 46.7812 407.78 46.7812H163.888ZM154.965 103.293C154.965 98.3649 158.96 94.3699 163.888 94.3699H407.78C412.708 94.3699 416.703 98.3649 416.703 103.293C416.703 108.221 412.708 112.216 407.78 112.216H163.888C158.96 112.216 154.965 108.221 154.965 103.293ZM163.888 141.959C158.96 141.959 154.965 145.954 154.965 150.882C154.965 155.81 158.96 159.804 163.888 159.804H288.808C293.736 159.804 297.731 155.81 297.731 150.882C297.731 145.954 293.736 141.959 288.808 141.959H163.888Z" fill="#0000E0"/>
</svg>
