<svg width="40" height="47" viewBox="0 0 40 47" fill="none" xmlns="http://www.w3.org/2000/svg">
<path fill-rule="evenodd" clip-rule="evenodd" d="M33.1616 19.8492C33.0499 12.2719 26.9158 6.81749 19.9973 6.82337C12.6352 6.83834 6.67668 12.7934 6.82624 20.2392C6.97754 27.7639 13.1374 33.3564 20.355 33.162C27.5952 32.9668 33.2674 27.0302 33.1616 19.8492ZM13.5059 19.5251C13.213 19.818 13.213 20.2929 13.5059 20.5858L17.395 24.4749C17.9808 25.0606 18.9305 25.0606 19.5163 24.4749L26.4158 17.5754C26.7087 17.2825 26.7087 16.8076 26.4158 16.5147C26.1229 16.2218 25.648 16.2218 25.3552 16.5147L18.986 22.8839C18.6931 23.1768 18.2182 23.1768 17.9253 22.8839L14.5666 19.5251C14.2737 19.2322 13.7988 19.2322 13.5059 19.5251Z" fill="#000050"/>
<path fill-rule="evenodd" clip-rule="evenodd" d="M22.8287 1.2448C21.169 -0.414932 18.478 -0.414932 16.8183 1.2448L16.385 1.67811C15.6903 2.37283 14.6777 2.64415 13.7287 2.38987L13.1369 2.23129C10.8697 1.62379 8.53922 2.96926 7.93171 5.23649L7.77311 5.82843C7.51882 6.77743 6.77757 7.51869 5.82856 7.77297L5.23659 7.93159C2.96936 8.53909 1.62388 10.8695 2.23138 13.1368L2.38996 13.7286C2.64425 14.6776 2.37293 15.6902 1.67821 16.3849L1.2448 16.8183C-0.414931 18.478 -0.414933 21.169 1.2448 22.8287L1.67825 23.2622C2.37296 23.9569 2.64428 24.9695 2.39 25.9185L2.23141 26.5103C1.62391 28.7775 2.96939 31.108 5.23662 31.7155L5.82853 31.8741C5.90595 31.8948 5.982 31.9188 6.05651 31.9459L1.90422 39.1379C0.960898 40.7717 2.32642 42.7713 4.19155 42.4872L6.25 42.1737C6.59678 42.1209 6.93385 42.3155 7.0615 42.6422L7.81922 44.5816C8.50578 46.3389 10.9202 46.5217 11.8635 44.8879L16.0308 37.6699C16.1559 37.7586 16.2745 37.8584 16.385 37.9689L16.8183 38.4022C18.478 40.062 21.169 40.062 22.8287 38.4022L23.2621 37.9689C23.3725 37.8584 23.491 37.7586 23.616 37.67L27.7833 44.8879C28.7266 46.5217 31.141 46.3389 31.8276 44.5816L32.5853 42.6422C32.7129 42.3155 33.05 42.1209 33.3968 42.1737L35.4552 42.4872C37.3204 42.7713 38.6859 40.7717 37.7426 39.1379L33.5904 31.946C33.665 31.9189 33.7412 31.8949 33.8187 31.8741L34.4107 31.7155C36.6779 31.108 38.0234 28.7775 37.4159 26.5103L37.2572 25.9183C37.0029 24.9693 37.2743 23.9567 37.969 23.262L38.4022 22.8287C40.062 21.169 40.062 18.478 38.4022 16.8183L37.969 16.3851C37.2743 15.6904 37.003 14.6778 37.2573 13.7288L37.4159 13.1368C38.0234 10.8695 36.6779 8.53909 34.4107 7.93159L33.8187 7.77297C32.8697 7.51869 32.1285 6.77743 31.8742 5.82843L31.7156 5.23649C31.1081 2.96926 28.7776 1.62379 26.5104 2.23129L25.9184 2.38992C24.9694 2.64421 23.9568 2.37289 23.2621 1.67817L22.8287 1.2448ZM14.5888 37.1674C14.3033 37.152 14.0131 37.181 13.7287 37.2572L13.1369 37.4158C10.8696 38.0233 8.53919 36.6778 7.93168 34.4106L7.77307 33.8186C7.67508 33.4529 7.50476 33.118 7.27811 32.83L3.20326 39.8879C2.88882 40.4325 3.34399 41.099 3.9657 41.0043L6.02415 40.6908C7.0645 40.5323 8.07571 41.1162 8.45866 42.0964L9.21638 44.0358C9.44523 44.6215 10.25 44.6825 10.5645 44.1379L14.5888 37.1674ZM29.0823 44.1379L25.0579 37.1674C25.3436 37.1519 25.6338 37.1809 25.9184 37.2571L26.5104 37.4158C28.7777 38.0233 31.1081 36.6778 31.7156 34.4106L31.8742 33.8186C31.9722 33.453 32.1424 33.1183 32.3689 32.8304L36.4435 39.8879C36.758 40.4325 36.3028 41.099 35.6811 41.0043L33.6226 40.6908C32.5823 40.5323 31.5711 41.1162 31.1881 42.0964L30.4304 44.0358C30.2016 44.6215 29.3968 44.6825 29.0823 44.1379ZM17.879 2.30546C18.9529 1.23151 20.6941 1.23151 21.7681 2.30546L22.2014 2.73883C23.2751 3.81248 24.84 4.23179 26.3066 3.83881L26.8986 3.68018C28.3657 3.28709 29.8736 4.15769 30.2667 5.62472L30.4253 6.21666C30.8183 7.6833 31.9638 8.82887 33.4305 9.22186L34.0225 9.38048C35.4895 9.77357 36.3601 11.2815 35.967 12.7485L35.8084 13.3406C35.4154 14.8072 35.8347 16.3721 36.9084 17.4458L37.3416 17.879C38.4155 18.9529 38.4155 20.6941 37.3416 21.7681L36.9083 22.2013C35.8347 23.275 35.4154 24.8398 35.8083 26.3065L35.967 26.8985C36.3601 28.3656 35.4895 29.8735 34.0224 30.2666L33.4305 30.4252C31.9639 30.8182 30.8183 31.9637 30.4253 33.4304L30.2667 34.0223C29.8736 35.4894 28.3657 36.36 26.8987 35.9669L26.3066 35.8082C24.8399 35.4152 23.2751 35.8346 22.2014 36.9082L21.7681 37.3416C20.6941 38.4155 18.9529 38.4155 17.879 37.3416L17.4457 36.9083C16.372 35.8346 14.8071 35.4153 13.3405 35.8083L12.7486 35.9669C11.2816 36.36 9.77366 35.4894 9.38057 34.0223L9.22196 33.4304C8.82897 31.9637 7.6834 30.8182 6.21676 30.4252L5.62485 30.2666C4.15781 29.8735 3.28721 28.3656 3.6803 26.8985L3.83889 26.3067C4.23187 24.84 3.81256 23.2752 2.73891 22.2015L2.30546 21.7681C1.23151 20.6941 1.23151 18.9529 2.30546 17.879L2.73887 17.4455C3.81253 16.3719 4.23184 14.807 3.83885 13.3404L3.68027 12.7485C3.28718 11.2815 4.15778 9.77357 5.62482 9.38048L6.21679 9.22186C7.68343 8.82887 8.82901 7.6833 9.22199 6.21666L9.3806 5.62472C9.77369 4.15769 11.2816 3.28709 12.7487 3.68018L13.3405 3.83875C14.8071 4.23174 16.372 3.81243 17.4456 2.73877L17.879 2.30546Z" fill="#000050"/>
</svg>
