<svg width="51" height="51" viewBox="0 0 51 51" fill="none" xmlns="http://www.w3.org/2000/svg">
<path d="M50.0704 48.7504C50.0808 49.6761 49.3331 50.4321 48.4073 50.4321H28.648C27.7361 50.4321 26.9969 49.6929 26.9969 48.7811L26.9969 45.5974C26.9968 43.7073 28.2067 42.0293 30 41.4321C30 41.4321 29.9804 40.3803 30 39.9321C30.0382 39.0621 30.2388 38.6784 30.7717 37.9937C31.2739 37.3483 31.4882 36.6256 31.4852 35.816C31.477 33.5876 31.4788 31.3593 31.4833 29.1311C31.4893 26.225 33.4157 24.313 36.3308 24.3125C37.8627 24.3122 39.3946 24.3095 40.9265 24.3132C43.5908 24.3194 45.5737 26.253 45.602 28.9094C45.626 31.1699 45.6187 33.4311 45.6027 35.6918C45.5964 36.5707 45.8188 37.3428 46.3578 38.0525C47.1718 39.1242 47 41.4321 47 41.4321C48.7955 42.0306 50.0142 43.7017 50.0353 45.5942L50.0704 48.7504ZM35.1335 31.6426C35.1335 31.8606 35.1361 32.0051 35.1331 32.1495C35.1199 32.7745 34.8976 32.9945 34.2745 32.9988C34.0464 33.0004 33.804 32.9481 33.5938 33.0089C33.3505 33.0792 33.0567 33.197 32.9336 33.389C32.8391 33.5363 32.8959 33.9229 33.0287 34.0371C33.2009 34.1852 33.5272 34.2447 33.7661 34.2074C34.355 34.1154 34.6133 34.2459 34.7589 34.8347C34.8991 35.4018 34.9973 35.9827 35.1817 36.5351C35.6659 37.9857 37.0483 38.9518 38.5719 38.9498C40.1158 38.9477 41.4993 37.9576 41.9733 36.4838C42.1319 35.9908 42.2355 35.4792 42.3469 34.9723C42.5035 34.2597 42.6912 34.1291 43.4308 34.2559C43.8382 34.3258 44.1729 34.1054 44.2252 33.7328C44.2822 33.3273 44.0202 33.0227 43.5759 33.0001C43.2996 32.9861 43.0218 33.0054 42.7448 32.9974C42.2635 32.9836 42.0256 32.7605 41.994 32.2851C41.9778 32.0421 42.0038 31.7962 41.9849 31.5536C41.9499 31.1063 41.3135 30.7223 40.9059 30.891C39.7033 31.3893 38.4529 31.6481 37.1491 31.6432C36.5 31.6407 35.8506 31.6426 35.1335 31.6426ZM36.1411 41.5933C37.3083 42.9311 39.7547 42.9327 40.9574 41.5898C40.794 41.0268 40.6397 40.4954 40.4754 39.9298C39.183 40.4608 37.8714 40.4098 36.6129 39.9259C36.4469 40.5126 36.2991 41.035 36.1411 41.5933Z" fill="#000050"/>
<path d="M0 48.4321C0 44.5661 3.13401 41.4321 7 41.4321C7 41.4321 8.00882 40.7533 8.15413 39.9967C8.27022 39.3924 8.18322 38.941 7.72876 38.4725C6.99399 37.715 6.74224 36.6994 6.53353 35.701C4.97085 35.3619 4.48261 34.7518 4.48221 33.1592C4.48195 31.7923 4.47674 30.4255 4.48339 29.0586C4.49721 26.2481 6.44705 24.3143 9.26222 24.3126C10.8274 24.3117 12.3927 24.3093 13.9578 24.3131C16.6161 24.3196 18.6058 26.2466 18.6605 28.9018C18.6917 30.4145 18.679 31.9285 18.6634 33.4416C18.6507 34.6712 17.9577 35.4212 16.6267 35.6827C16.5317 36.0332 16.4911 36.4208 16.3256 36.7447C15.9669 37.4464 15.5796 38.1401 15.1304 38.7861C14.9487 39.0472 14.845 39.2567 14.8794 39.5677C15.0226 40.8623 16.3483 41.4321 16.3483 41.4321C20.0219 41.4321 23 44.4102 23 48.0838V48.9321C23 49.7606 22.3284 50.4321 21.5 50.4321H1.5C0.671573 50.4321 0 49.7606 0 48.9321V48.4321ZM8.13313 31.6429C8.13313 31.8696 8.13587 32.0151 8.13261 32.1606C8.11891 32.7794 7.89325 32.997 7.26426 32.9992C7.03612 33 6.79311 32.9486 6.58362 33.0107C6.34152 33.0824 6.06238 33.2061 5.9262 33.3972C5.83319 33.5277 5.8808 33.9021 6.00342 34.0071C6.18082 34.1591 6.49675 34.2543 6.72932 34.218C7.38818 34.1154 7.61619 34.2325 7.7752 34.8901C7.91255 35.4577 8.01443 36.0382 8.20396 36.5883C8.69311 38.0086 10.0757 38.9554 11.5811 38.9498C13.1061 38.944 14.4945 37.9638 14.9621 36.5216C15.1366 35.9832 15.236 35.4199 15.3632 34.8666C15.495 34.293 15.7707 34.1415 16.3483 34.2141C16.5866 34.2441 16.9112 34.167 17.0766 34.0115C17.2037 33.8919 17.2429 33.5033 17.1419 33.3609C17.0095 33.1741 16.6984 33.0075 16.4686 33.0131C15.2849 33.0418 14.8965 33.0344 14.9785 31.5913C15.0058 31.1124 14.3349 30.7144 13.896 30.8954C12.677 31.3982 11.4098 31.6543 10.089 31.6436C9.4571 31.6386 8.82525 31.6429 8.13313 31.6429ZM13.4859 39.9619C12.4421 40.2347 11.1481 40.2345 9.60398 39.9615C9.45189 40.4951 9.29979 41.0286 9.1387 41.5937C10.3399 42.9349 12.788 42.9301 13.9535 41.5919C13.7935 41.0338 13.6439 40.5123 13.4859 39.9619Z" fill="#000050"/>
<path fill-rule="evenodd" clip-rule="evenodd" d="M10.5 0C9.67157 0 9 0.671573 9 1.5V16.5C9 17.3284 9.67157 18 10.5 18H12.25C12.6642 18 13 18.3358 13 18.75V21.1177C13 21.6985 13.6316 22.0589 14.1316 21.7634L19.7939 18.4173C20.2562 18.1441 20.7832 18 21.3202 18H27.1301C27.6983 18 28.2549 18.1614 28.735 18.4653L33.8488 21.7032C34.3482 22.0194 35 21.6606 35 21.0696V18.75C35 18.3358 35.3358 18 35.75 18H37.5C38.3284 18 39 17.3284 39 16.5V1.5C39 0.671573 38.3284 0 37.5 0H10.5ZM13.75 3.93213C13.3358 3.93213 13 4.26792 13 4.68213C13 5.09634 13.3358 5.43213 13.75 5.43213H34.25C34.6642 5.43213 35 5.09634 35 4.68213C35 4.26792 34.6642 3.93213 34.25 3.93213H13.75ZM13 8.68213C13 8.26792 13.3358 7.93213 13.75 7.93213H34.25C34.6642 7.93213 35 8.26792 35 8.68213C35 9.09634 34.6642 9.43213 34.25 9.43213H13.75C13.3358 9.43213 13 9.09634 13 8.68213ZM13.75 11.9321C13.3358 11.9321 13 12.2679 13 12.6821C13 13.0963 13.3358 13.4321 13.75 13.4321H24.25C24.6642 13.4321 25 13.0963 25 12.6821C25 12.2679 24.6642 11.9321 24.25 11.9321H13.75Z" fill="#000050"/>
</svg>
