<svg width="35" height="49" viewBox="0 0 35 49" fill="none" xmlns="http://www.w3.org/2000/svg">
<path fill-rule="evenodd" clip-rule="evenodd" d="M0.830566 8.1369C0.321533 8.39069 0 8.91046 0 9.47919V14.1684C0 14.7371 0.321533 15.2569 0.830566 15.5107L6.11816 18.1476L0.830575 20.7845C0.321632 21.0384 0 21.5582 0 22.1269V26.8161C0 27.3848 0.321634 27.9046 0.830576 28.1584L6.11785 30.7952L0.830575 33.432C0.321632 33.6858 0 34.2056 0 34.7743V39.4635C0 40.0322 0.321634 40.552 0.830576 40.8058L16.8306 48.7851C17.2521 48.9953 17.7479 48.9953 18.1694 48.7851L34.1694 40.8058C34.6784 40.552 35 40.0322 35 39.4635V34.7743C35 34.2056 34.6784 33.6858 34.1694 33.432L28.8822 30.7952L34.1694 28.1584C34.6784 27.9046 35 27.3848 35 26.8161V22.1269C35 21.5582 34.6784 21.0384 34.1694 20.7845L28.8818 18.1476L34.1694 15.5107C34.6785 15.2569 35 14.7371 35 14.1684V9.47919C35 8.91046 34.6785 8.39069 34.1694 8.1369L18.1694 0.157654C17.7478 -0.0525513 17.2522 -0.0525513 16.8306 0.157654L0.830566 8.1369ZM27.4384 31.5152L18.1694 36.1376C17.7479 36.3479 17.2521 36.3479 16.8306 36.1376L7.56164 31.5152L3.3905 33.5702C2.828 33.8473 2.83373 34.6513 3.40013 34.9204L16.8563 41.3131C17.2636 41.5066 17.7364 41.5066 18.1437 41.3131L31.5999 34.9204C32.1663 34.6513 32.172 33.8473 31.6095 33.5702L27.4384 31.5152ZM3.3905 20.9228L7.56196 18.8676L16.8306 23.4899C17.2522 23.7001 17.7478 23.7001 18.1694 23.4899L27.438 18.8676L31.6095 20.9228C32.172 21.1999 32.1663 22.0039 31.5999 22.273L18.1437 28.6657C17.7364 28.8592 17.2636 28.8592 16.8563 28.6657L3.40013 22.273C2.83373 22.0039 2.828 21.1999 3.3905 20.9228ZM3.39038 8.27509C2.82788 8.55219 2.83374 9.35626 3.40015 9.62531L16.8564 16.018C17.2637 16.2115 17.7363 16.2115 18.1436 16.018L31.5999 9.62531C32.1663 9.35626 32.1719 8.55219 31.6094 8.27509L18.1628 1.65033C17.7449 1.44452 17.2551 1.44452 16.8372 1.65033L3.39038 8.27509Z" fill="#000050"/>
</svg>
