<svg width="50" height="49" viewBox="0 0 50 49" fill="none" xmlns="http://www.w3.org/2000/svg">
<path fill-rule="evenodd" clip-rule="evenodd" d="M26.5 1.5C26.5 2.05521 26.1984 2.53997 25.75 2.79933V6H36.5V1.75C36.5 1.33579 36.8358 1 37.25 1C37.6642 1 38 1.33579 38 1.75V6H42.5C43.3284 6 44 6.67157 44 7.5V12H47.2007C47.46 11.5516 47.9448 11.25 48.5 11.25C49.3284 11.25 50 11.9216 50 12.75C50 13.5784 49.3284 14.25 48.5 14.25C47.9448 14.25 47.46 13.9483 47.2007 13.5H44V24.25H48.25C48.6642 24.25 49 24.5858 49 25C49 25.4142 48.6642 25.75 48.25 25.75H44V36.5H48.25C48.6642 36.5 49 36.8358 49 37.25C49 37.6642 48.6642 38 48.25 38H44V42.5C44 43.3284 43.3284 44 42.5 44H38V48.25C38 48.6642 37.6642 49 37.25 49C36.8358 49 36.5 48.6642 36.5 48.25V44H25.75V48.25C25.75 48.6642 25.4142 49 25 49C24.5858 49 24.25 48.6642 24.25 48.25V44H13.5V48.25C13.5 48.6642 13.1642 49 12.75 49C12.3358 49 12 48.6642 12 48.25V44H7.5C6.67157 44 6 43.3284 6 42.5V38H2.79933C2.53997 38.4483 2.05521 38.75 1.5 38.75C0.671573 38.75 0 38.0784 0 37.25C0 36.4216 0.671573 35.75 1.5 35.75C2.05521 35.75 2.53997 36.0517 2.79933 36.5H6V25.75H1.75C1.33579 25.75 1 25.4142 1 25C1 24.5858 1.33579 24.25 1.75 24.25H6V13.5H1.75C1.33579 13.5 1 13.1642 1 12.75C1 12.3358 1.33579 12 1.75 12H6V7.5C6 6.67157 6.67157 6 7.5 6H12V1.75C12 1.33579 12.3358 1 12.75 1C13.1642 1 13.5 1.33579 13.5 1.75V6H24.25V2.79933C23.8016 2.53997 23.5 2.05521 23.5 1.5C23.5 0.671573 24.1716 0 25 0C25.8284 0 26.5 0.671573 26.5 1.5ZM19.4931 36.5525C20.0454 37.2488 21.1018 37.8109 22.4109 37.3013C23.2915 36.9581 23.8835 36.0437 23.8835 35.0263V33.6864C23.8835 32.5893 22.9908 31.6971 21.8939 31.6971C20.7971 31.6971 19.9044 32.5893 19.9044 33.6864C19.9044 34.0316 19.6247 34.3113 19.2795 34.3113C18.9342 34.3113 18.6545 34.0316 18.6545 33.6864C18.6545 31.9003 20.1076 30.4472 21.8939 30.4472C22.6474 30.4472 23.3326 30.7163 23.8835 31.1494V14.2829C23.8835 13.7037 23.6007 13.1583 23.1271 12.8239C22.6421 12.4817 22.0252 12.4062 21.4317 12.6176C21.0031 12.7696 20.6445 13.1113 20.4714 13.5318C20.1913 14.2119 20.2956 14.9082 20.7572 15.4426C20.9679 15.6865 20.959 16.0506 20.7358 16.2836C20.5135 16.5163 20.1498 16.5417 19.8965 16.3409C18.9699 15.6074 17.769 15.42 16.6028 15.8295C15.7535 16.1277 15.0504 16.8098 14.7225 17.6541C14.2501 18.8702 14.5178 19.8558 14.8258 20.4685C14.9229 20.662 14.9131 20.8919 14.8002 21.0762C14.6871 21.2607 14.4865 21.3736 14.2702 21.3744C13.2906 21.3787 12.4939 22.1783 12.4939 23.1572C12.4939 24.0438 13.1343 24.7818 14.0172 24.9124C14.2979 24.9537 14.5154 25.1795 14.5469 25.4619C14.5781 25.7439 14.4151 26.0118 14.1502 26.1137C13.6927 26.2901 13.2702 26.5712 12.9289 26.9272C12.3298 27.5527 12 28.374 12 29.2396C12 30.8694 13.165 32.256 14.7701 32.537C14.9595 32.5699 15.1232 32.6887 15.2138 32.8584C15.3045 33.0281 15.3118 33.2301 15.2337 33.4058C15.0362 33.8522 14.8791 34.5636 15.2555 35.418C15.4819 35.9316 15.9154 36.3519 16.4449 36.5698C17.4218 36.9728 18.1967 36.7049 18.6757 36.4095C18.7777 36.3464 18.8908 36.3163 19.0035 36.3163C19.1882 36.3163 19.3704 36.3985 19.4931 36.5525ZM33.803 32.8582C33.8937 32.6886 34.0571 32.5698 34.2467 32.5368C35.8517 32.2559 37.0167 30.8691 37.0167 29.2394C37.0167 28.3736 36.6869 27.5526 36.0878 26.9271C35.7464 26.5711 35.3241 26.2899 34.8664 26.1135C34.6016 26.0116 34.4386 25.7437 34.4697 25.4617C34.5011 25.1796 34.7187 24.9538 34.9995 24.9123C35.8823 24.7816 36.5228 24.0434 36.5228 23.1571C36.5228 22.1784 35.726 21.3785 34.7464 21.3742C34.5302 21.3732 34.3296 21.2603 34.2165 21.076C34.1036 20.8917 34.0938 20.6618 34.1908 20.4684C34.4986 19.8554 34.7666 18.87 34.2942 17.6539C33.9661 16.8095 33.263 16.1276 32.4139 15.8294C31.2471 15.4202 30.047 15.6066 29.1202 16.3408C28.8676 16.5414 28.5036 16.5165 28.2808 16.2834C28.0579 16.0505 28.0487 15.6862 28.2595 15.4425C28.7211 14.9081 28.8254 14.2117 28.5453 13.5317C28.3722 13.1112 28.0134 12.7694 27.5849 12.6174C27.3634 12.5385 27.1386 12.4998 26.9185 12.4998C26.5491 12.4998 26.1931 12.6093 25.8895 12.8235C25.416 13.1582 25.1332 13.7034 25.1332 14.2825V19.9991C25.1332 21.096 26.0259 21.9887 27.1227 21.9887C28.2196 21.9887 29.1123 21.0962 29.1123 19.9991C29.1123 19.6539 29.392 19.3742 29.7372 19.3742C30.0824 19.3742 30.3622 19.6539 30.3622 19.9991C30.3622 21.7854 28.9091 23.2385 27.1227 23.2385C26.3692 23.2385 25.6841 22.9694 25.1332 22.5363V35.0262C25.1332 36.0438 25.7252 36.9582 26.6055 37.3014C27.9155 37.8114 28.9709 37.2485 29.5232 36.5525C29.7201 36.3048 30.0715 36.2439 30.3408 36.4095C30.8199 36.7049 31.5956 36.9728 32.5714 36.57C33.1013 36.3518 33.5349 35.9317 33.7613 35.4178C34.1376 34.5634 33.9808 33.8522 33.7831 33.4057C33.7049 33.2299 33.7125 33.0279 33.803 32.8582Z" fill="#000050"/>
<path d="M19.8565 25.0283C19.8565 25.3735 20.1362 25.6532 20.4815 25.6532C20.8267 25.6532 21.1064 25.3735 21.1064 25.0283C21.1064 24.0494 20.5954 23.1911 19.8289 22.6953C19.8319 22.6923 19.8358 22.6902 19.8388 22.6872C20.9231 21.6027 20.9231 19.8384 19.8388 18.7539C19.5947 18.5098 19.1993 18.5098 18.9551 18.7539C18.711 18.9976 18.711 19.3935 18.9551 19.6376C19.552 20.2347 19.552 21.2062 18.9551 21.8035C18.3583 22.4004 17.3861 22.4004 16.7892 21.8035C16.5451 21.5594 16.149 21.5594 15.9055 21.8035C15.6614 22.0476 15.6614 22.4435 15.9055 22.6872C16.4478 23.2296 17.1599 23.5003 17.8723 23.5003C18.0254 23.5003 18.1757 23.4967 18.3251 23.4967C19.1696 23.4967 19.8565 24.1838 19.8565 25.0283Z" fill="#000050"/>
<path d="M31.998 27.8628C31.4318 27.8628 30.8929 28.0329 30.4352 28.3455C29.9608 27.9954 29.3945 27.7981 28.7939 27.7981C28.051 27.7981 27.3524 28.0874 26.8271 28.6129C26.583 28.857 26.583 29.2528 26.8271 29.4966C27.0712 29.7407 27.4673 29.7407 27.7108 29.4966C28.2894 28.9182 29.2976 28.9178 29.8763 29.4966C30.1656 29.7858 30.3249 30.1704 30.3249 30.5792C30.3249 30.9885 30.1656 31.3728 29.8763 31.6623C29.6322 31.9064 29.6322 32.3019 29.8763 32.546C29.9984 32.6681 30.1583 32.7291 30.3182 32.7291C30.4781 32.7291 30.638 32.668 30.76 32.546C31.2855 32.0205 31.5748 31.3224 31.5748 30.5792C31.5748 30.1309 31.4576 29.704 31.2585 29.3163C31.8383 29.0071 32.6042 29.0846 33.0808 29.5613C33.2029 29.6833 33.3627 29.7443 33.5226 29.7443C33.6825 29.7443 33.8424 29.6833 33.9645 29.5613C34.2086 29.3175 34.2086 28.9217 33.9645 28.6775C33.4394 28.1521 32.7409 27.8628 31.998 27.8628Z" fill="#000050"/>
</svg>
