<svg width="36" height="48" viewBox="0 0 36 48" fill="none" xmlns="http://www.w3.org/2000/svg">
<path d="M35.0243 8.24582C35.0193 8.22733 35.0099 8.21045 35.0033 8.19242C34.9882 8.1518 34.9718 8.11187 34.9495 8.0749C34.9378 8.0555 34.9234 8.03816 34.91 8.0199C34.8865 7.98818 34.8616 7.95783 34.8328 7.93022C34.815 7.91333 34.7956 7.89781 34.776 7.88275C34.76 7.8702 34.7468 7.85491 34.7295 7.84373C34.7135 7.83346 34.6952 7.82821 34.6786 7.81931C34.666 7.8127 34.6562 7.80243 34.6432 7.79649L17.8186 0.0641789C17.6324 -0.021393 17.4188 -0.021393 17.2326 0.0641789L0.407974 7.79649C0.394511 7.80266 0.384698 7.81315 0.371919 7.82C0.355489 7.82867 0.337689 7.83369 0.321715 7.84373C0.304372 7.85491 0.291363 7.8702 0.275161 7.88275C0.255536 7.89781 0.236139 7.91333 0.21834 7.93022C0.189815 7.9576 0.164714 7.98818 0.14121 8.0199C0.127747 8.03816 0.11337 8.0555 0.101732 8.0749C0.0795965 8.11187 0.0629387 8.15203 0.0478771 8.19242C0.0412594 8.21045 0.0319016 8.22733 0.0268811 8.24582C0.0104508 8.30629 0.000181846 8.36927 0.000181846 8.43408V13.3232C0.000181846 13.5977 0.160379 13.8469 0.40957 13.961L8.40711 17.6152L0.408402 21.2915C0.395395 21.2974 0.385583 21.3077 0.373031 21.3145C0.356145 21.3234 0.338345 21.3284 0.322143 21.3387C0.3048 21.3499 0.291793 21.3652 0.275591 21.3777C0.255965 21.3928 0.236569 21.4083 0.218769 21.4252C0.190245 21.4526 0.165142 21.4832 0.141638 21.5149C0.128174 21.5331 0.113798 21.5505 0.10216 21.5699C0.0800244 21.6069 0.0633665 21.647 0.048305 21.6874C0.0416873 21.7054 0.0323307 21.7223 0.0273107 21.7408C0.010652 21.801 0.000383302 21.864 0.000383302 21.9288V26.1169C0.000383302 26.3915 0.16058 26.6407 0.409771 26.7548L9.17201 30.7583L0.408019 34.7859C0.394784 34.7921 0.384971 34.8024 0.372192 34.8092C0.355533 34.8181 0.337734 34.8229 0.32176 34.8332C0.304417 34.8444 0.291409 34.8597 0.275207 34.8722C0.255582 34.8873 0.236186 34.9028 0.218386 34.9197C0.189861 34.9471 0.164759 34.9776 0.141255 35.0094C0.127791 35.0276 0.113415 35.045 0.101777 35.0644C0.0796411 35.1013 0.0629832 35.1415 0.0479217 35.1819C0.041304 35.1999 0.0319474 35.2168 0.0269274 35.2353C0.0102687 35.2957 0 35.3587 0 35.4235V39.6116C0 39.8862 0.160197 40.1354 0.409388 40.2495L17.234 47.9368C17.3271 47.979 17.4264 48 17.5256 48C17.6249 48 17.7242 47.9788 17.8173 47.9368L34.6419 40.2495C34.8911 40.1354 35.0513 39.8862 35.0513 39.6116V35.4228C35.0513 35.3583 35.041 35.2957 35.0241 35.235C35.0191 35.2165 35.0098 35.1997 35.0031 35.1816C34.9881 35.141 34.9716 35.1011 34.9493 35.0641C34.9376 35.0447 34.9233 35.0274 34.9098 35.0091C34.8863 34.9774 34.8614 34.947 34.8327 34.9194C34.8149 34.9025 34.7955 34.887 34.7759 34.872C34.7599 34.8594 34.7466 34.8441 34.7293 34.8329C34.7131 34.8224 34.6948 34.8174 34.678 34.8083C34.6656 34.8017 34.6558 34.7916 34.643 34.7857L25.8796 30.7583L34.6419 26.7548C34.8911 26.6407 35.0513 26.3915 35.0513 26.1169V21.9281C35.0513 21.8636 35.041 21.801 35.0241 21.7403C35.0191 21.7218 35.0097 21.705 35.0031 21.6869C34.988 21.6463 34.9716 21.6064 34.9493 21.5694C34.9376 21.55 34.9232 21.5327 34.9098 21.5144C34.8863 21.4827 34.8614 21.4523 34.8326 21.4247C34.8148 21.4078 34.7954 21.3923 34.7758 21.3773C34.7598 21.3647 34.7466 21.3494 34.7293 21.3382C34.7131 21.3277 34.6946 21.3225 34.6777 21.3136C34.6654 21.307 34.6558 21.2969 34.643 21.291L26.6443 17.6147L34.6418 13.9606C34.8913 13.8469 35.0515 13.5977 35.0515 13.3232V8.43338C35.0515 8.36902 35.0412 8.30629 35.0243 8.24582ZM17.5255 42.3396L2.38396 35.4211L10.8553 31.5276L17.2334 34.4419C17.3265 34.4841 17.4258 34.5051 17.5251 34.5051C17.6243 34.5051 17.7236 34.4839 17.8167 34.4419L24.1949 31.5276L32.6662 35.4211L17.5255 42.3396ZM19.627 27.8845L18.785 28.2692L17.9432 28.6537L17.5256 28.8447L17.108 28.654L16.2661 28.2694L15.4241 27.8847L2.38444 21.926L10.091 18.3841L17.2345 21.648C17.3276 21.6902 17.4269 21.7112 17.5261 21.7112C17.6254 21.7112 17.7247 21.69 17.8178 21.648L24.9612 18.3841L32.6678 21.926L19.627 27.8845ZM17.5255 1.47274L32.6671 8.43159L19.6269 14.3897L18.7848 14.7745L17.943 15.159L17.5256 15.3497L17.108 15.159L16.2662 14.7745L15.4242 14.3897L2.38449 8.43101L17.5255 1.47274Z" fill="#000050"/>
</svg>
