<svg width="48" height="43" viewBox="0 0 48 43" fill="none" xmlns="http://www.w3.org/2000/svg">
<path fill-rule="evenodd" clip-rule="evenodd" d="M27.5 38.9756C26.6871 39.5874 25.987 40.0962 25.4414 40.4853C25.0411 40.7708 24.7237 40.9919 24.5059 41.1421C24.3969 41.2172 24.3128 41.2746 24.2556 41.3134L24.1902 41.3576L24.1732 41.3691L24.1686 41.3722L24.1673 41.373L23.7498 40.75C24.1667 41.3734 24.1673 41.373 24.1673 41.373L23.7498 41.6523L23.3309 41.3721L23.3093 41.3576L23.2439 41.3134C23.1867 41.2746 23.1026 41.2172 22.9937 41.1421C22.7758 40.9919 22.4585 40.7708 22.0582 40.4854C21.5127 40.0964 20.8128 39.5876 20 38.9759V40.25C20 41.4926 18.9926 42.5 17.75 42.5H14.75C13.5074 42.5 12.5 41.4926 12.5 40.25V35.8713C12.5 35.6724 12.421 35.4816 12.2803 35.341L0.65901 23.7197C0.237053 23.2977 0 22.7254 0 22.1287V13.25C0 13.2298 0.000264919 13.2098 0.000791464 13.1897C0.000265193 13.1458 0 13.1018 0 13.0577L7.39098e-06 13.0438C0.00773531 5.84113 5.83017 0 13.0167 0C17.4731 0 21.4046 2.24666 23.75 5.66846C26.0954 2.24666 30.0269 0 34.4833 0C41.6746 0 47.5 5.84849 47.5 13.0577C47.5 13.1023 47.4998 13.1469 47.4993 13.1914C47.4998 13.2108 47.5 13.2304 47.5 13.25V22.1287C47.5 22.7254 47.2629 23.2977 46.841 23.7197L35.2197 35.341C35.079 35.4816 35 35.6724 35 35.8713V40.25C35 41.4926 33.9926 42.5 32.75 42.5H29.75C28.5074 42.5 27.5 41.4926 27.5 40.25V38.9756ZM35.2803 28.7803C34.9874 29.0732 34.5126 29.0732 34.2197 28.7803C33.9268 28.4874 33.9268 28.0126 34.2197 27.7197L39.1893 22.75L37.7803 21.341C37.524 21.0847 37.1284 21.0527 36.8373 21.2449C36.7957 21.2723 36.7563 21.3044 36.7197 21.341L29.2197 28.841C29.079 28.9816 29 29.1724 29 29.3713V40.25C29 40.6642 29.3358 41 29.75 41H32.75C33.1642 41 33.5 40.6642 33.5 40.25V35.8713C33.5 35.2746 33.7371 34.7023 34.159 34.2803L45.7803 22.659C45.921 22.5184 46 22.3276 46 22.1287V13.25C46 13.2412 45.9999 13.2323 45.9996 13.2236C45.9859 12.8219 45.6554 12.5 45.25 12.5H44.75C44.3358 12.5 44 12.8358 44 13.25V19.1287C44 19.7254 43.7629 20.2977 43.341 20.7197L35.2803 28.7803ZM18.5 29.3713V40.25C18.5 40.6642 18.1642 41 17.75 41H14.75C14.3358 41 14 40.6642 14 40.25V35.8713C14 35.2746 13.7629 34.7023 13.341 34.2803L1.71967 22.659C1.57902 22.5184 1.5 22.3276 1.5 22.1287V13.25C1.5 12.8358 1.83579 12.5 2.25 12.5H2.75C3.16421 12.5 3.5 12.8358 3.5 13.25V19.1287C3.5 19.6508 3.68149 20.1543 4.00955 20.5546C4.05641 20.6118 4.10627 20.6669 4.15901 20.7197L12.2197 28.7803C12.5126 29.0732 12.9874 29.0732 13.2803 28.7803C13.5732 28.4874 13.5732 28.0126 13.2803 27.7197L8.31066 22.75L9.71967 21.341C9.97595 21.0847 10.3716 21.0527 10.6627 21.2449C10.7043 21.2723 10.7437 21.3044 10.7803 21.341L18.2803 28.841C18.421 28.9816 18.5 29.1724 18.5 29.3713Z" fill="#000050"/>
</svg>
