<svg width="56" height="44" viewBox="0 0 56 44" fill="none" xmlns="http://www.w3.org/2000/svg">
<path fill-rule="evenodd" clip-rule="evenodd" d="M12 1.5C12 0.671573 12.6716 0 13.5 0H42C42.8284 0 43.5 0.671573 43.5 1.5V2.5V8.5V10.25H48.5C48.9142 10.25 49.25 9.91421 49.25 9.5V6.90549C47.9561 6.57245 47 5.39788 47 4C47 2.34315 48.3431 1 50 1C51.6569 1 53 2.34315 53 4C53 5.39788 52.0439 6.57245 50.75 6.90549V9.5C50.75 10.7426 49.7426 11.75 48.5 11.75H43.5V19V20.5V27.25H50.0945C50.4275 25.9561 51.6021 25 53 25C54.6569 25 56 26.3431 56 28C56 29.6569 54.6569 31 53 31C51.6021 31 50.4275 30.0439 50.0945 28.75H43.5V32.4999C43.5 33.7425 42.4926 34.7499 41.25 34.7499H38.75V39.5C38.75 39.9142 39.0858 40.25 39.5 40.25H42.0945C42.4275 38.9561 43.6021 38 45 38C46.6569 38 48 39.3431 48 41C48 42.6569 46.6569 44 45 44C43.6021 44 42.4275 43.0439 42.0945 41.75H39.5C38.2574 41.75 37.25 40.7426 37.25 39.5V34.7499H18.75V39.5C18.75 40.7426 17.7426 41.75 16.5 41.75H13.9055C13.5725 43.0439 12.3979 44 11 44C9.34315 44 8 42.6569 8 41C8 39.3431 9.34315 38 11 38C12.3979 38 13.5725 38.9561 13.9055 40.25H16.5C16.9142 40.25 17.25 39.9142 17.25 39.5V34.7499H14.25C13.0074 34.7499 12 33.7425 12 32.4999V28.75H5.90549C5.57245 30.0439 4.39788 31 3 31C1.34315 31 0 29.6569 0 28C0 26.3431 1.34315 25 3 25C4.39788 25 5.57245 25.9561 5.90549 27.25H12V20.5V19V11.75H7C5.75736 11.75 4.75 10.7426 4.75 9.5V6.90549C3.45608 6.57245 2.5 5.39788 2.5 4C2.5 2.34315 3.84315 1 5.5 1C7.15685 1 8.5 2.34315 8.5 4C8.5 5.39788 7.54392 6.57245 6.25 6.90549V9.5C6.25 9.91421 6.58579 10.25 7 10.25H12V8.5V2.5V1.5ZM42 10H13.5V19V20.5C13.5 20.9142 13.8358 21.25 14.25 21.25H41.25C41.6642 21.25 42 20.9142 42 20.5V19V10ZM42 22.622C41.7654 22.7049 41.513 22.75 41.25 22.75H14.25C13.987 22.75 13.7346 22.7049 13.5 22.622V32.4999C13.5 32.9141 13.8358 33.2499 14.25 33.2499H41.25C41.6642 33.2499 42 32.9141 42 32.4999V22.622ZM19 19C20.6569 19 22 17.6569 22 16C22 14.3431 20.6569 13 19 13C17.3431 13 16 14.3431 16 16C16 17.6569 17.3431 19 19 19ZM22 28C22 29.6569 20.6569 31 19 31C17.3431 31 16 29.6569 16 28C16 26.3431 17.3431 25 19 25C20.6569 25 22 26.3431 22 28ZM26 15.25C25.5858 15.25 25.25 15.5858 25.25 16C25.25 16.4142 25.5858 16.75 26 16.75H38C38.4142 16.75 38.75 16.4142 38.75 16C38.75 15.5858 38.4142 15.25 38 15.25H26ZM25.25 28C25.25 27.5858 25.5858 27.25 26 27.25H38C38.4142 27.25 38.75 27.5858 38.75 28C38.75 28.4142 38.4142 28.75 38 28.75H26C25.5858 28.75 25.25 28.4142 25.25 28Z" fill="#000050"/>
</svg>
