<svg width="41" height="50" viewBox="0 0 41 50" fill="none" xmlns="http://www.w3.org/2000/svg">
<path d="M40.7776 33.606C40.7776 32.6134 40.3191 31.7288 39.6033 31.1497V22.7561C39.6033 22.4682 39.4645 22.1974 39.2306 22.0297C38.9967 21.8619 38.6962 21.8172 38.4229 21.9088L31.4329 24.2685C31.3195 24.2395 31.2058 24.2109 31.0899 24.1876C29.8072 23.9297 28.4827 23.8786 27.1778 23.728C25.3325 23.5148 25.2688 23.439 25.066 21.6058C25.017 21.1655 25.164 20.8686 25.4215 20.4991C26.0575 19.5841 26.6062 18.6019 27.1141 17.6082C27.3484 17.1497 27.406 16.6006 27.5405 16.1041C29.4255 15.7339 30.407 14.6716 30.4246 12.9307C30.4468 10.7878 30.4646 8.64375 30.4206 6.50154C30.343 2.74112 27.5255 0.012286 23.7608 0.00298597C21.5445 -0.00237941 19.3279 0.000839817 17.1113 0.00227059C13.1248 0.00477443 10.3634 2.74327 10.3437 6.72331C10.3344 8.65914 10.3416 10.5946 10.342 12.5304C10.3427 14.7857 11.0341 15.6495 13.2468 16.1299C13.5422 17.5439 13.8988 18.9821 14.9394 20.0548C15.5829 20.7184 15.7063 21.3576 15.5417 22.2132C15.3361 23.2845 15.1576 23.547 14.0673 23.6597C13.0121 23.7688 11.9498 23.8142 10.8949 23.9276C10.2604 23.9959 9.66413 24.1275 9.10148 24.3064L2.28136 21.9127C2.00808 21.8165 1.70476 21.8591 1.46833 22.0268C1.23153 22.1946 1.09096 22.4664 1.09096 22.7565V31.222C0.423865 31.8015 0 32.6538 0 33.6067C0 34.5596 0.423865 35.412 1.09096 35.9915V42.9067C1.09096 43.2884 1.33312 43.6282 1.69403 43.7523L19.6981 49.9522C19.7929 49.9847 19.8909 50.0008 19.9893 50.0008C20.0844 50.0008 20.1792 49.9858 20.2704 49.9554L38.9895 43.7555C39.3554 43.6343 39.6026 43.2923 39.6026 42.9067V36.063C40.3183 35.4839 40.7769 34.599 40.7769 33.6067L40.7776 33.606ZM16.9364 24.4745C17.1646 23.6743 17.3799 22.9189 17.5952 22.1631C19.7818 22.5498 21.6143 22.5501 23.0926 22.1638C23.3162 22.9432 23.5283 23.6819 23.7547 24.472C22.1043 26.367 18.6375 26.3738 16.9364 24.4745ZM15.0055 14.9813C14.7802 14.0499 14.4576 13.8843 13.5243 14.0295C13.1949 14.081 12.7474 13.9462 12.4963 13.7309C12.3229 13.5821 12.2552 13.052 12.3869 12.867C12.5797 12.5963 12.9749 12.4213 13.318 12.3198C13.6145 12.2318 13.9589 12.3047 14.2819 12.3037C15.1726 12.3004 15.4924 11.9925 15.5117 11.1161C15.5163 10.9101 15.5124 10.7041 15.5124 10.3829C16.4925 10.3829 17.3874 10.3768 18.282 10.3839C20.1527 10.399 21.9469 10.0363 23.6735 9.32444C24.2952 9.06798 25.2452 9.6317 25.2066 10.3099C25.0903 12.3534 25.6404 12.3641 27.3166 12.3233C27.6421 12.3155 28.0828 12.5512 28.2702 12.8159C28.4129 13.0176 28.3578 13.5677 28.1776 13.7373C27.9433 13.9576 27.4836 14.0667 27.1463 14.0242C26.3283 13.9215 25.9377 14.1358 25.7513 14.9481C25.5711 15.7318 25.4305 16.5294 25.1833 17.2917C24.5212 19.3341 22.555 20.7219 20.3952 20.7302C18.2634 20.738 16.3054 19.3974 15.6129 17.3861C15.3446 16.6071 15.1998 15.7851 15.0055 14.9813ZM2.88014 36.7516C2.97242 36.7598 3.06578 36.7659 3.16021 36.7659C4.90539 36.7659 6.31971 35.3512 6.31971 33.6064C6.31971 31.8616 4.90503 30.4469 3.16021 30.4469C3.06578 30.4469 2.97242 30.453 2.88014 30.4612V24.0181L19.0958 29.7097V47.8529L2.88014 42.269V36.7516ZM37.8149 42.2604L20.8842 47.8679V29.7172L37.8149 24.0016V30.4562C37.7494 30.4522 37.6843 30.4462 37.6181 30.4462C35.8733 30.4462 34.4586 31.8608 34.4586 33.6057C34.4586 35.3505 35.8733 36.7652 37.6181 36.7652C37.6847 36.7652 37.7494 36.7594 37.8149 36.7551V42.2604Z" fill="#000050"/>
</svg>
