<svg width="46" height="47" viewBox="0 0 46 47" fill="none" xmlns="http://www.w3.org/2000/svg">
<path d="M2.79933 2.25C2.53997 2.69835 2.05521 3 1.5 3C0.671573 3 0 2.32843 0 1.5C0 0.671573 0.671573 0 1.5 0C2.05521 0 2.53997 0.301649 2.79933 0.75H4.25C4.66421 0.75 5 1.08579 5 1.5C5 1.91421 4.66421 2.25 4.25 2.25H2.79933Z" fill="#000050"/>
<path d="M2.79933 7.75C2.53997 8.19835 2.05521 8.5 1.5 8.5C0.671573 8.5 0 7.82843 0 7C0 6.17157 0.671573 5.5 1.5 5.5C2.05521 5.5 2.53997 5.80165 2.79933 6.25H4.25C4.66421 6.25 5 6.58579 5 7C5 7.41421 4.66421 7.75 4.25 7.75H2.79933Z" fill="#000050"/>
<path d="M2.79933 13.25C2.53997 13.6984 2.05521 14 1.5 14C0.671573 14 0 13.3284 0 12.5C0 11.6716 0.671573 11 1.5 11C2.05521 11 2.53997 11.3016 2.79933 11.75H4.25C4.66421 11.75 5 12.0858 5 12.5C5 12.9142 4.66421 13.25 4.25 13.25H2.79933Z" fill="#000050"/>
<path d="M2.79933 18.75C2.53997 19.1984 2.05521 19.5 1.5 19.5C0.671573 19.5 0 18.8284 0 18C0 17.1716 0.671573 16.5 1.5 16.5C2.05521 16.5 2.53997 16.8016 2.79933 17.25H4.25C4.66421 17.25 5 17.5858 5 18C5 18.4142 4.66421 18.75 4.25 18.75H2.79933Z" fill="#000050"/>
<path d="M2.79933 24.25C2.53997 24.6984 2.05521 25 1.5 25C0.671573 25 0 24.3284 0 23.5C0 22.6716 0.671573 22 1.5 22C2.05521 22 2.53997 22.3016 2.79933 22.75H4.25C4.66421 22.75 5 23.0858 5 23.5C5 23.9142 4.66421 24.25 4.25 24.25H2.79933Z" fill="#000050"/>
<path d="M2.79933 29.75C2.53997 30.1984 2.05521 30.5 1.5 30.5C0.671573 30.5 0 29.8284 0 29C0 28.1716 0.671573 27.5 1.5 27.5C2.05521 27.5 2.53997 27.8016 2.79933 28.25H4.25C4.66421 28.25 5 28.5858 5 29C5 29.4142 4.66421 29.75 4.25 29.75H2.79933Z" fill="#000050"/>
<path d="M2.79933 35.25C2.53997 35.6983 2.05521 36 1.5 36C0.671573 36 0 35.3284 0 34.5C0 33.6716 0.671573 33 1.5 33C2.05521 33 2.53997 33.3017 2.79933 33.75H4.25C4.66421 33.75 5 34.0858 5 34.5C5 34.9142 4.66421 35.25 4.25 35.25H2.79933Z" fill="#000050"/>
<path d="M2.79933 40.75C2.53997 41.1983 2.05521 41.5 1.5 41.5C0.671573 41.5 0 40.8284 0 40C0 39.1716 0.671573 38.5 1.5 38.5C2.05521 38.5 2.53997 38.8017 2.79933 39.25H4.25C4.66421 39.25 5 39.5858 5 40C5 40.4142 4.66421 40.75 4.25 40.75H2.79933Z" fill="#000050"/>
<path d="M2.79933 46.25C2.53997 46.6983 2.05521 47 1.5 47C0.671573 47 0 46.3284 0 45.5C0 44.6716 0.671573 44 1.5 44C2.05521 44 2.53997 44.3017 2.79933 44.75H4.25C4.66421 44.75 5 45.0858 5 45.5C5 45.9142 4.66421 46.25 4.25 46.25H2.79933Z" fill="#000050"/>
<path d="M23 19.25C23 18.8358 23.3358 18.5 23.75 18.5H32.25C32.6642 18.5 33 18.8358 33 19.25V27.75C33 28.1642 32.6642 28.5 32.25 28.5H23.75C23.3358 28.5 23 28.1642 23 27.75V19.25Z" fill="#000050"/>
<path fill-rule="evenodd" clip-rule="evenodd" d="M7.75 2.25H11.5C11.9142 2.25 12.25 2.58579 12.25 3V6.25H7.75C7.33579 6.25 7 6.58579 7 7C7 7.41421 7.33579 7.75 7.75 7.75H12.25V11.75H7.75C7.33579 11.75 7 12.0858 7 12.5C7 12.9142 7.33579 13.25 7.75 13.25H12.25V17.25H7.75C7.33579 17.25 7 17.5858 7 18C7 18.4142 7.33579 18.75 7.75 18.75H19.25V22.75H7.75C7.33579 22.75 7 23.0858 7 23.5C7 23.9142 7.33579 24.25 7.75 24.25H19.25V28.25H7.75C7.33579 28.25 7 28.5858 7 29C7 29.4142 7.33579 29.75 7.75 29.75H12.25V33.75H7.75C7.33579 33.75 7 34.0858 7 34.5C7 34.9142 7.33579 35.25 7.75 35.25H12.25V39.25H7.75C7.33579 39.25 7 39.5858 7 40C7 40.4142 7.33579 40.75 7.75 40.75H12.25V44C12.25 44.4142 11.9142 44.75 11.5 44.75H7.75C7.33579 44.75 7 45.0858 7 45.5C7 45.9142 7.33579 46.25 7.75 46.25H11.5C12.7426 46.25 13.75 45.2426 13.75 44V29.75H19.25V30C19.25 31.2426 20.2574 32.25 21.5 32.25H34.5C35.7426 32.25 36.75 31.2426 36.75 30V24.25H43.6893L41.4697 26.4697C41.1768 26.7626 41.1768 27.2374 41.4697 27.5303C41.7626 27.8232 42.2374 27.8232 42.5303 27.5303L45.5 24.5607C46.0858 23.9749 46.0858 23.0251 45.5 22.4393L42.5303 19.4697C42.2374 19.1768 41.7626 19.1768 41.4697 19.4697C41.1768 19.7626 41.1768 20.2374 41.4697 20.5303L43.6893 22.75H36.75V17C36.75 15.7574 35.7426 14.75 34.5 14.75H21.5C20.2574 14.75 19.25 15.7574 19.25 17V17.25H13.75V3C13.75 1.75736 12.7426 0.75 11.5 0.75H7.75C7.33579 0.75 7 1.08579 7 1.5C7 1.91421 7.33579 2.25 7.75 2.25ZM20.75 17C20.75 16.5858 21.0858 16.25 21.5 16.25H34.5C34.9142 16.25 35.25 16.5858 35.25 17V30C35.25 30.4142 34.9142 30.75 34.5 30.75H21.5C21.0858 30.75 20.75 30.4142 20.75 30V17Z" fill="#000050"/>
</svg>
