<svg width="32" height="32" viewBox="0 0 32 32" fill="none" xmlns="http://www.w3.org/2000/svg">
<path fill-rule="evenodd" clip-rule="evenodd" d="M11.66 0.00195312C5.22038 0.00195312 0 5.22233 0 11.662C0 18.1017 5.22038 23.322 11.66 23.322C13.8601 23.322 15.9179 22.7127 17.6738 21.6536C18.3189 21.2645 19.159 21.3098 19.6917 21.8425L28.7885 30.9393C29.3743 31.5251 30.324 31.5251 30.9098 30.9393L30.9393 30.9098C31.5251 30.324 31.5251 29.3743 30.9393 28.7885L21.842 19.6912C21.3095 19.1586 21.2641 18.3186 21.6529 17.6736C22.7112 15.9182 23.3201 13.8612 23.3201 11.662C23.3201 5.22233 18.0997 0.00195312 11.66 0.00195312ZM3.04175 11.662C3.04175 6.90225 6.90029 3.0437 11.66 3.0437C16.4198 3.0437 20.2783 6.90225 20.2783 11.662C20.2783 16.4217 16.4198 20.2803 11.66 20.2803C6.90029 20.2803 3.04175 16.4217 3.04175 11.662Z" fill="white"/>
</svg>
