<svg width="18" height="18" viewBox="0 0 18 18" fill="none" xmlns="http://www.w3.org/2000/svg">
<path fill-rule="evenodd" clip-rule="evenodd" d="M11.4805 3.47934C11.4805 1.82249 12.8236 0.47934 14.4805 0.47934C16.1373 0.47934 17.4805 1.82249 17.4805 3.47934C17.4805 5.13619 16.1373 6.47934 14.4805 6.47934C13.8601 6.47934 13.2838 6.29106 12.8054 5.96853C12.4292 5.71483 11.946 5.60303 11.5401 5.80597L6.95736 8.09732C6.62394 8.26404 6.45703 8.63618 6.45703 9.00896C6.45703 9.38171 6.62392 9.75382 6.95732 9.92052L11.5253 12.2045C11.933 12.4084 12.4185 12.2947 12.7954 12.0383C13.2757 11.7116 13.8558 11.5207 14.4805 11.5207C16.1373 11.5207 17.4805 12.8638 17.4805 14.5207C17.4805 16.1775 16.1373 17.5207 14.4805 17.5207C12.8236 17.5207 11.4805 16.1775 11.4805 14.5207C11.4805 14.1479 11.3136 13.7757 10.9801 13.609L6.41232 11.3251C6.00459 11.1212 5.51912 11.2349 5.1422 11.4913C4.66186 11.818 4.08175 12.009 3.45703 12.009C1.80018 12.009 0.457031 10.6658 0.457031 9.00896C0.457031 7.35211 1.80018 6.00896 3.45703 6.00896C4.08173 6.00896 4.66183 6.1999 5.14216 6.5266C5.51908 6.78297 6.00454 6.89668 6.41226 6.69282L10.9688 4.41454C11.3106 4.24367 11.4805 3.8614 11.4805 3.47934Z" fill="white"/>
</svg>
